<mxfile host="app.diagrams.net" modified="2024-05-22T22:34:11.827Z" agent="Mozilla/5.0 (Macintosh; Intel Mac OS X 10.15; rv:126.0) Gecko/20100101 Firefox/126.0" version="24.4.2" etag="1GVRYUGNYyEaTd6EmPoK" type="github">
  <diagram name="Page-1" id="5nI1CVHLx8nV51dm1Z05">
    <mxGraphModel>
      <root>
        <mxCell id="0" />
        <mxCell id="1" parent="0" />
      </root>
    </mxGraphModel>
  </diagram>
</mxfile>
